<?xml version="1.0" standalone="no"?><!DOCTYPE svg PUBLIC "-//W3C//DTD SVG 1.1//EN" "http://www.w3.org/Graphics/SVG/1.1/DTD/svg11.dtd"><svg t="1606493099686" class="icon" viewBox="0 0 1024 1024" version="1.1" xmlns="http://www.w3.org/2000/svg" p-id="2414" xmlns:xlink="http://www.w3.org/1999/xlink" width="200" height="200"><defs><style type="text/css"></style></defs><path d="M771.4304 145.408a329.1136 329.1136 0 0 0-236.9536-94.1056 329.1136 329.1136 0 0 0-239.616 94.1568A329.1136 329.1136 0 0 0 205.312 390.3488c0 161.28 105.984 349.5424 305.4592 558.1824l23.7056 24.3712 23.7056-24.3712c201.4208-209.3056 304.128-394.9568 305.408-558.848a329.1136 329.1136 0 0 0-92.16-244.224zM534.528 877.5168c-171.8272-185.6512-263.3216-350.208-263.3216-489.1136a263.3216 263.3216 0 0 1 70.4512-197.4784 263.3216 263.3216 0 0 1 192.8704-73.728 263.3216 263.3216 0 0 1 192.2048 74.3936 269.2096 269.2096 0 0 1 73.0624 197.4784c-1.9968 138.24-92.16 302.1312-265.2672 488.448z m0-628.6848a131.6352 131.6352 0 1 0 0 263.3216 131.6352 131.6352 0 0 0 0-263.3216z m0 187.648a56.6272 56.6272 0 1 1 0-113.2544 56.6272 56.6272 0 0 1 0 113.2544z" p-id="2415"></path></svg>