<?xml version="1.0" standalone="no"?><!DOCTYPE svg PUBLIC "-//W3C//DTD SVG 1.1//EN" "http://www.w3.org/Graphics/SVG/1.1/DTD/svg11.dtd"><svg t="1606493407151" class="icon" viewBox="0 0 1024 1024" version="1.1" xmlns="http://www.w3.org/2000/svg" p-id="7258" xmlns:xlink="http://www.w3.org/1999/xlink" width="200" height="200"><defs><style type="text/css"></style></defs><path d="M640 427.52V512h-83.626667v174.08c-0.5632 20.48-9.642667 39.509333-27.306666 57.173333-16.503467 17.066667-36.4032 25.6-59.733334 25.6s-43.52-8.533333-60.586666-25.6c-16.503467-16.503467-24.746667-36.4032-24.746667-59.733333 0-23.313067 8.2432-43.52 24.746667-60.586667 17.066667-16.503467 37.256533-24.746667 60.586666-24.746666 15.36 0 29.576533 3.720533 42.666667 11.093333V427.52h128z" p-id="7259"></path><path d="M853.333333 955.733333H170.666667c-66.030933 0-102.4-36.369067-102.4-102.4V342.186667c0-66.030933 36.369067-102.4 102.4-102.4h682.666666c66.030933 0 102.4 36.369067 102.4 102.4V853.333333c0 66.030933-36.369067 102.4-102.4 102.4zM170.666667 273.92c-47.223467 0-68.266667 21.060267-68.266667 68.266667V853.333333c0 47.223467 21.0432 68.266667 68.266667 68.266667h682.666666c47.223467 0 68.266667-21.0432 68.266667-68.266667V342.186667c0-47.2064-21.0432-68.266667-68.266667-68.266667H170.666667z m685.226666-85.333333H170.666667a17.066667 17.066667 0 0 1 0-34.133334h685.226666a17.066667 17.066667 0 1 1 0 34.133334z m-85.333333-86.186667H256a17.066667 17.066667 0 0 1 0-34.133333h514.56a17.066667 17.066667 0 1 1 0 34.133333z" p-id="7260"></path></svg>