<?xml version="1.0" standalone="no"?><!DOCTYPE svg PUBLIC "-//W3C//DTD SVG 1.1//EN" "http://www.w3.org/Graphics/SVG/1.1/DTD/svg11.dtd"><svg t="1606492923837" class="icon" viewBox="0 0 1024 1024" version="1.1" xmlns="http://www.w3.org/2000/svg" p-id="1598" xmlns:xlink="http://www.w3.org/1999/xlink" width="200" height="200"><defs><style type="text/css"></style></defs><path d="M772.608 211.3024c-52.0704 0-97.6896 45.6192-97.6896 97.792v188.928c-6.5024-6.5024-6.5024-13.0048-13.056-13.0048l-403.968-273.7152C244.7872 204.8 231.7312 204.8 218.7264 204.8 179.6608 204.8 153.6 230.912 153.6 269.9776v540.8256c0 13.056 6.5024 26.112 13.056 39.1168 13.0048 13.056 32.5632 19.5584 52.1216 19.5584 13.0048 0 26.0608-6.5024 39.0656-13.056l404.0192-267.1616 13.056-13.0048v188.928c0 52.1728 45.568 97.792 97.7408 97.792 52.1216 0 97.7408-45.6192 97.7408-97.792V309.0432c0-52.1216-45.568-97.7408-97.792-97.7408z m-534.272 32.6144l-19.5584 26.0608 19.5584-26.112z m-19.5584 560.384V269.9776l403.968 267.1616-403.968 267.1616z m586.4448-39.1168c0 19.5584-13.0048 32.6144-32.5632 32.6144s-32.5632-13.056-32.5632-32.6144V309.0432c0-19.5072 13.0048-32.5632 32.5632-32.5632s32.5632 13.056 32.5632 32.5632v456.192z" p-id="1599"></path></svg>